<svg width="14" height="16" viewBox="0 0 14 16" fill="none" xmlns="http://www.w3.org/2000/svg">
<path d="M6.9598 2.5466C5.83356 2.5466 4.75344 2.994 3.95706 3.79038C3.16069 4.58675 2.71329 5.66687 2.71329 6.79311C2.71329 8.52933 3.79433 10.2043 4.98093 11.5019C5.58798 12.1626 6.24998 12.7706 6.9598 13.3194C7.66961 12.771 8.3316 12.1634 8.93867 11.5031C10.1253 10.2043 11.2063 8.52994 11.2063 6.79311C11.2063 5.66687 10.7589 4.58675 9.96254 3.79038C9.16616 2.994 8.08604 2.5466 6.9598 2.5466ZM6.9598 14.8093L6.61583 14.5727L6.61401 14.5715L6.61037 14.5685L6.59824 14.56L6.55274 14.5278C6.30155 14.3452 6.05595 14.1551 5.81628 13.9576C5.20197 13.4529 4.62365 12.906 4.08552 12.3209C2.84554 10.9644 1.5 8.99948 1.5 6.79311C1.5 5.34508 2.07523 3.95636 3.09914 2.93245C4.12305 1.90854 5.51177 1.33331 6.9598 1.33331C8.40783 1.33331 9.79655 1.90854 10.8205 2.93245C11.8444 3.95636 12.4196 5.34508 12.4196 6.79311C12.4196 8.99948 11.0741 10.965 9.83408 12.3209C9.13151 13.085 8.36071 13.7835 7.53126 14.4077C7.46214 14.4594 7.39237 14.5101 7.32197 14.56L7.30923 14.5685L7.30559 14.5715L7.30437 14.5721L6.9598 14.8087V14.8093ZM6.9598 5.57982C6.63802 5.57982 6.32941 5.70765 6.10188 5.93519C5.87434 6.16272 5.74651 6.47133 5.74651 6.79311C5.74651 7.1149 5.87434 7.4235 6.10188 7.65104C6.32941 7.87857 6.63802 8.0064 6.9598 8.0064C7.28158 8.0064 7.59019 7.87857 7.81772 7.65104C8.04526 7.4235 8.17309 7.1149 8.17309 6.79311C8.17309 6.47133 8.04526 6.16272 7.81772 5.93519C7.59019 5.70765 7.28158 5.57982 6.9598 5.57982ZM4.53322 6.79311C4.53322 6.14954 4.78888 5.53233 5.24395 5.07726C5.69902 4.62219 6.31623 4.36654 6.9598 4.36654C7.60337 4.36654 8.22058 4.62219 8.67565 5.07726C9.13072 5.53233 9.38638 6.14954 9.38638 6.79311C9.38638 7.43668 9.13072 8.05389 8.67565 8.50896C8.22058 8.96403 7.60337 9.21969 6.9598 9.21969C6.31623 9.21969 5.69902 8.96403 5.24395 8.50896C4.78888 8.05389 4.53322 7.43668 4.53322 6.79311Z" fill="#72AF41"/>
</svg>
