<svg width="32" height="33" viewBox="0 0 32 33" fill="none" xmlns="http://www.w3.org/2000/svg">
<path d="M6.66667 15.1667H12C13.4667 15.1667 14.6667 13.9667 14.6667 12.5V7.16667C14.6667 5.7 13.4667 4.5 12 4.5H6.66667C5.2 4.5 4 5.7 4 7.16667V12.5C4 13.9667 5.2 15.1667 6.66667 15.1667ZM6.66667 7.16667H12V12.5H6.66667V7.16667ZM6.66667 28.5H12C13.4667 28.5 14.6667 27.3 14.6667 25.8333V20.5C14.6667 19.0333 13.4667 17.8333 12 17.8333H6.66667C5.2 17.8333 4 19.0333 4 20.5V25.8333C4 27.3 5.2 28.5 6.66667 28.5ZM6.66667 20.5H12V25.8333H6.66667V20.5ZM17.3333 7.16667V12.5C17.3333 13.9667 18.5333 15.1667 20 15.1667H25.3333C26.8 15.1667 28 13.9667 28 12.5V7.16667C28 5.7 26.8 4.5 25.3333 4.5H20C18.5333 4.5 17.3333 5.7 17.3333 7.16667ZM25.3333 12.5H20V7.16667H25.3333V12.5ZM28 27.8333V26.5C28 26.1267 27.7067 25.8333 27.3333 25.8333H26C25.6267 25.8333 25.3333 26.1267 25.3333 26.5V27.8333C25.3333 28.2067 25.6267 28.5 26 28.5H27.3333C27.7067 28.5 28 28.2067 28 27.8333ZM17.3333 18.5V19.8333C17.3333 20.2067 17.6267 20.5 18 20.5H19.3333C19.7067 20.5 20 20.2067 20 19.8333V18.5C20 18.1267 19.7067 17.8333 19.3333 17.8333H18C17.6267 17.8333 17.3333 18.1267 17.3333 18.5ZM22 20.5H20.6667C20.2933 20.5 20 20.7933 20 21.1667V22.5C20 22.8733 20.2933 23.1667 20.6667 23.1667H22C22.3733 23.1667 22.6667 22.8733 22.6667 22.5V21.1667C22.6667 20.7933 22.3733 20.5 22 20.5ZM17.3333 23.8333V25.1667C17.3333 25.54 17.6267 25.8333 18 25.8333H19.3333C19.7067 25.8333 20 25.54 20 25.1667V23.8333C20 23.46 19.7067 23.1667 19.3333 23.1667H18C17.6267 23.1667 17.3333 23.46 17.3333 23.8333ZM20.6667 28.5H22C22.3733 28.5 22.6667 28.2067 22.6667 27.8333V26.5C22.6667 26.1267 22.3733 25.8333 22 25.8333H20.6667C20.2933 25.8333 20 26.1267 20 26.5V27.8333C20 28.2067 20.2933 28.5 20.6667 28.5ZM23.3333 25.8333H24.6667C25.04 25.8333 25.3333 25.54 25.3333 25.1667V23.8333C25.3333 23.46 25.04 23.1667 24.6667 23.1667H23.3333C22.96 23.1667 22.6667 23.46 22.6667 23.8333V25.1667C22.6667 25.54 22.96 25.8333 23.3333 25.8333ZM24.6667 17.8333H23.3333C22.96 17.8333 22.6667 18.1267 22.6667 18.5V19.8333C22.6667 20.2067 22.96 20.5 23.3333 20.5H24.6667C25.04 20.5 25.3333 20.2067 25.3333 19.8333V18.5C25.3333 18.1267 25.04 17.8333 24.6667 17.8333ZM26 23.1667H27.3333C27.7067 23.1667 28 22.8733 28 22.5V21.1667C28 20.7933 27.7067 20.5 27.3333 20.5H26C25.6267 20.5 25.3333 20.7933 25.3333 21.1667V22.5C25.3333 22.8733 25.6267 23.1667 26 23.1667Z" fill="#C0C0C1"/>
</svg>
