<svg width="59" height="59" viewBox="0 0 59 59" fill="none" xmlns="http://www.w3.org/2000/svg">
<path d="M12.2917 27.0417H22.125C24.8292 27.0417 27.0417 24.8292 27.0417 22.125V12.2917C27.0417 9.5875 24.8292 7.375 22.125 7.375H12.2917C9.5875 7.375 7.375 9.5875 7.375 12.2917V22.125C7.375 24.8292 9.5875 27.0417 12.2917 27.0417ZM12.2917 12.2917H22.125V22.125H12.2917V12.2917ZM12.2917 51.625H22.125C24.8292 51.625 27.0417 49.4125 27.0417 46.7083V36.875C27.0417 34.1708 24.8292 31.9583 22.125 31.9583H12.2917C9.5875 31.9583 7.375 34.1708 7.375 36.875V46.7083C7.375 49.4125 9.5875 51.625 12.2917 51.625ZM12.2917 36.875H22.125V46.7083H12.2917V36.875ZM31.9583 12.2917V22.125C31.9583 24.8292 34.1708 27.0417 36.875 27.0417H46.7083C49.4125 27.0417 51.625 24.8292 51.625 22.125V12.2917C51.625 9.5875 49.4125 7.375 46.7083 7.375H36.875C34.1708 7.375 31.9583 9.5875 31.9583 12.2917ZM46.7083 22.125H36.875V12.2917H46.7083V22.125ZM51.625 50.3958V47.9375C51.625 47.2492 51.0842 46.7083 50.3958 46.7083H47.9375C47.2492 46.7083 46.7083 47.2492 46.7083 47.9375V50.3958C46.7083 51.0842 47.2492 51.625 47.9375 51.625H50.3958C51.0842 51.625 51.625 51.0842 51.625 50.3958ZM31.9583 33.1875V35.6458C31.9583 36.3342 32.4992 36.875 33.1875 36.875H35.6458C36.3342 36.875 36.875 36.3342 36.875 35.6458V33.1875C36.875 32.4992 36.3342 31.9583 35.6458 31.9583H33.1875C32.4992 31.9583 31.9583 32.4992 31.9583 33.1875ZM40.5625 36.875H38.1042C37.4158 36.875 36.875 37.4158 36.875 38.1042V40.5625C36.875 41.2508 37.4158 41.7917 38.1042 41.7917H40.5625C41.2508 41.7917 41.7917 41.2508 41.7917 40.5625V38.1042C41.7917 37.4158 41.2508 36.875 40.5625 36.875ZM31.9583 43.0208V45.4792C31.9583 46.1675 32.4992 46.7083 33.1875 46.7083H35.6458C36.3342 46.7083 36.875 46.1675 36.875 45.4792V43.0208C36.875 42.3325 36.3342 41.7917 35.6458 41.7917H33.1875C32.4992 41.7917 31.9583 42.3325 31.9583 43.0208ZM38.1042 51.625H40.5625C41.2508 51.625 41.7917 51.0842 41.7917 50.3958V47.9375C41.7917 47.2492 41.2508 46.7083 40.5625 46.7083H38.1042C37.4158 46.7083 36.875 47.2492 36.875 47.9375V50.3958C36.875 51.0842 37.4158 51.625 38.1042 51.625ZM43.0208 46.7083H45.4792C46.1675 46.7083 46.7083 46.1675 46.7083 45.4792V43.0208C46.7083 42.3325 46.1675 41.7917 45.4792 41.7917H43.0208C42.3325 41.7917 41.7917 42.3325 41.7917 43.0208V45.4792C41.7917 46.1675 42.3325 46.7083 43.0208 46.7083ZM45.4792 31.9583H43.0208C42.3325 31.9583 41.7917 32.4992 41.7917 33.1875V35.6458C41.7917 36.3342 42.3325 36.875 43.0208 36.875H45.4792C46.1675 36.875 46.7083 36.3342 46.7083 35.6458V33.1875C46.7083 32.4992 46.1675 31.9583 45.4792 31.9583ZM47.9375 41.7917H50.3958C51.0842 41.7917 51.625 41.2508 51.625 40.5625V38.1042C51.625 37.4158 51.0842 36.875 50.3958 36.875H47.9375C47.2492 36.875 46.7083 37.4158 46.7083 38.1042V40.5625C46.7083 41.2508 47.2492 41.7917 47.9375 41.7917Z" fill="#E0E0E0"/>
</svg>
