<svg width="222" height="165" viewBox="0 0 222 165" fill="none" xmlns="http://www.w3.org/2000/svg">
<path d="M63.0223 53.5824H65.7403V60.1344H68.1563V44.9136H65.7403V51.4152H63.0223V44.9136H60.6063V60.1344H63.0223V53.5824Z" fill="white"/>
<path d="M84.9174 11.1457H82.3001V18.4033H80.8404V11.1457H78.2734V9.98645H84.9174V11.1457Z" fill="white"/>
<path d="M89.0447 14.3712L90.7057 9.98642H92.3164L89.3971 16.992L89.1454 17.496C88.7427 18.2016 88.1387 18.504 87.2831 18.504L86.6791 18.4536V17.2944C86.7797 17.2944 86.9307 17.2944 87.1824 17.2944C87.5851 17.2944 87.8871 17.0928 88.0381 16.74L88.3401 16.0344L85.4711 9.88562H87.0817L89.0447 14.3712Z" fill="white"/>
<path d="M94.9338 15.2784V18.4033H93.4741V9.98645H96.6955C97.6518 9.98645 98.3564 10.2385 98.9101 10.7425C99.4638 11.2465 99.7155 11.9017 99.7155 12.7081C99.7155 13.5145 99.4638 14.1697 98.9101 14.6233C98.3564 15.0769 97.6014 15.3288 96.6451 15.3288H94.9338V15.2784ZM94.9338 14.0688H96.6955C97.1988 14.0688 97.6014 13.9681 97.9034 13.7161C98.1551 13.4641 98.3061 13.1113 98.3061 12.6577C98.3061 12.2041 98.1551 11.8512 97.9034 11.5488C97.6014 11.2968 97.2491 11.1457 96.7458 11.1457H94.9338V14.0688Z" fill="white"/>
<path d="M106.208 9.98645H107.668V18.4033H106.208V12.4057L102.534 18.4033H101.074V9.98645H102.534V15.9841L106.208 9.98645Z" fill="white"/>
<path d="M113.607 12.2544C113.607 11.8512 113.456 11.5992 113.205 11.3472C112.903 11.1456 112.55 10.9944 112.047 10.9944C111.644 10.9944 111.292 11.0952 110.99 11.3472C110.688 11.5488 110.587 11.8512 110.587 12.204H109.128C109.128 11.7504 109.279 11.3472 109.53 10.9944C109.782 10.6416 110.134 10.3392 110.587 10.1376C111.04 9.936 111.544 9.83521 112.097 9.83521C113.054 9.83521 113.809 10.0368 114.362 10.4904C114.916 10.8936 115.168 11.4984 115.168 12.2544C115.168 12.6576 115.067 13.0104 114.815 13.3128C114.564 13.6152 114.262 13.8672 113.859 14.0688C114.312 14.22 114.664 14.472 114.916 14.8248C115.168 15.1776 115.268 15.5808 115.268 16.0344C115.268 16.7904 114.966 17.3952 114.413 17.8488C113.859 18.3024 113.054 18.504 112.097 18.504C111.493 18.504 110.99 18.4032 110.487 18.2016C109.983 18 109.631 17.6976 109.43 17.3448C109.178 16.992 109.077 16.5384 109.077 16.0848H110.537C110.537 16.4376 110.688 16.74 110.99 16.992C111.292 17.244 111.695 17.3448 112.148 17.3448C112.651 17.3448 113.054 17.244 113.406 16.992C113.708 16.74 113.859 16.4376 113.859 16.0344C113.859 15.5808 113.708 15.228 113.456 15.0264C113.205 14.8248 112.802 14.724 112.248 14.724H111.242V13.5648H112.198C113.104 13.5144 113.607 13.1112 113.607 12.2544Z" fill="white"/>
<path d="M118.439 9.98645L120.855 16.4377L123.271 9.98645H125.184V18.4033H123.724V15.6313L123.875 11.9017L121.409 18.4033H120.352L117.886 11.9017L118.037 15.6313V18.4033H116.527V9.98645H118.439Z" fill="white"/>
<path d="M134.999 9.98645H136.459V18.4033H134.999V12.4057L131.325 18.4033H129.865V9.98645H131.325V15.9841L134.999 9.98645Z" fill="white"/>
<path d="M146.274 9.98645H147.733V18.4033H146.274V12.4057L142.599 18.4033H141.14V9.98645H142.599V15.9841L146.274 9.98645Z" fill="white"/>
<path d="M156.189 18.4033H154.73V14.6737H150.955V18.4033H149.495V9.98645H150.955V13.4641H154.73V9.98645H156.189V18.4033Z" fill="white"/>
<path d="M165.652 20.4696H164.243V18.4033H158.706V20.4696H157.297L157.246 17.2441H157.901C158.253 16.9417 158.505 16.4376 158.706 15.8328C158.907 15.228 159.058 14.5225 159.109 13.7161L159.31 9.98645H164.595V17.2441H165.652V20.4696ZM159.562 17.1937H163.186V11.1457H160.719L160.568 13.5145C160.468 15.0769 160.166 16.3369 159.562 17.1937Z" fill="white"/>
<path d="M169.83 14.3712L171.491 9.98642H173.101L170.182 16.992L169.93 17.496C169.528 18.2016 168.924 18.504 168.068 18.504L167.464 18.4536V17.2944C167.565 17.2944 167.716 17.2944 167.967 17.2944C168.37 17.2944 168.672 17.0928 168.823 16.74L169.125 16.0344L166.256 9.88562H167.867L169.83 14.3712Z" fill="white"/>
<path d="M180.651 15.6312C180.551 16.5384 180.249 17.244 179.645 17.748C179.091 18.252 178.286 18.504 177.329 18.504C176.675 18.504 176.071 18.3528 175.568 18.0504C175.064 17.748 174.662 17.2944 174.41 16.6896C174.108 16.0848 174.007 15.4296 173.957 14.6736V13.8672C173.957 13.0608 174.108 12.3552 174.36 11.7504C174.662 11.1456 175.064 10.692 175.568 10.3392C176.071 10.0368 176.725 9.83521 177.38 9.83521C178.286 9.83521 179.041 10.0872 179.645 10.5912C180.198 11.0952 180.551 11.8008 180.651 12.708H179.192C179.141 12.1032 178.94 11.6496 178.638 11.3976C178.336 11.1456 177.933 10.9944 177.38 10.9944C176.725 10.9944 176.272 11.2464 175.92 11.7C175.568 12.1536 175.417 12.8592 175.417 13.7664V14.5224C175.417 15.4296 175.568 16.1352 175.92 16.5888C176.222 17.0424 176.725 17.2944 177.329 17.2944C177.883 17.2944 178.336 17.1432 178.638 16.8912C178.94 16.6392 179.091 16.1856 179.192 15.5808H180.651V15.6312Z" fill="white"/>
<path d="M188.05 11.1457H185.433V18.4033H183.973V11.1457H181.356V9.98645H188V11.1457H188.05Z" fill="white"/>
<path d="M190.617 15.2784V18.4033H189.158V9.98645H192.379C193.335 9.98645 194.04 10.2385 194.594 10.7425C195.147 11.2465 195.399 11.9017 195.399 12.7081C195.399 13.5145 195.147 14.1697 194.594 14.6233C194.04 15.0769 193.285 15.3288 192.329 15.3288H190.617V15.2784ZM190.617 14.0688H192.379C192.882 14.0688 193.285 13.9681 193.587 13.7161C193.839 13.4641 193.99 13.1113 193.99 12.6577C193.99 12.2041 193.839 11.8512 193.587 11.5488C193.285 11.2968 192.933 11.1457 192.429 11.1457H190.617V14.0688Z" fill="white"/>
<path d="M201.842 9.98645H203.301V18.4033H201.842V12.4057L198.167 18.4033H196.708V9.98645H198.167V15.9841L201.842 9.98645Z" fill="white"/>
<path d="M209.19 18.4033V15.2784H207.58L205.969 18.4033H204.409L206.271 14.8248C205.315 14.3712 204.811 13.6152 204.811 12.5568C204.811 11.7504 205.063 11.1457 205.617 10.6921C206.17 10.2385 206.875 10.0369 207.831 9.98645H210.7V18.4033H209.19ZM206.271 12.6073C206.271 13.0609 206.422 13.4641 206.674 13.7161C206.925 13.9681 207.328 14.1193 207.882 14.1193H209.241V11.1457H207.882C207.328 11.1457 206.925 11.2968 206.674 11.5488C206.422 11.8008 206.271 12.1537 206.271 12.6073Z" fill="white"/>
<path d="M107.416 25.3584H103.541V32.616H102.081V24.1992H107.416V25.3584Z" fill="white"/>
<path d="M115.319 28.584C115.319 29.3904 115.168 30.1464 114.916 30.7512C114.614 31.356 114.211 31.86 113.708 32.1624C113.154 32.5152 112.55 32.6664 111.896 32.6664C111.191 32.6664 110.587 32.5152 110.084 32.1624C109.53 31.8096 109.128 31.356 108.826 30.7512C108.524 30.1464 108.373 29.4408 108.373 28.6344V28.1808C108.373 27.3744 108.524 26.6184 108.826 26.0136C109.128 25.4088 109.53 24.9048 110.034 24.552C110.587 24.1992 111.191 24.048 111.846 24.048C112.55 24.048 113.154 24.1992 113.658 24.552C114.211 24.9048 114.614 25.3584 114.866 25.9632C115.168 26.568 115.319 27.324 115.319 28.1304V28.584ZM113.859 28.1808C113.859 27.2736 113.658 26.5176 113.305 26.0136C112.953 25.5096 112.45 25.2576 111.795 25.2576C111.141 25.2576 110.688 25.5096 110.336 26.0136C109.983 26.5176 109.782 27.2232 109.782 28.1304V28.6344C109.782 29.5416 109.983 30.2976 110.336 30.8016C110.688 31.3056 111.191 31.5576 111.846 31.5576C112.5 31.5576 113.003 31.3056 113.356 30.8016C113.708 30.2976 113.859 29.592 113.859 28.6344V28.1808Z" fill="white"/>
<path d="M123.221 29.844C123.12 30.7512 122.818 31.4568 122.214 31.9608C121.661 32.4648 120.855 32.7168 119.899 32.7168C119.245 32.7168 118.641 32.5656 118.137 32.2632C117.634 31.9608 117.231 31.5072 116.98 30.9024C116.678 30.2976 116.577 29.6424 116.527 28.8864V28.08C116.527 27.2736 116.678 26.568 116.929 25.9632C117.181 25.3584 117.634 24.9048 118.137 24.552C118.641 24.2496 119.295 24.048 119.949 24.048C120.855 24.048 121.61 24.3 122.214 24.804C122.768 25.308 123.12 26.0136 123.221 26.9208H121.761C121.711 26.316 121.51 25.8624 121.258 25.6104C120.956 25.3584 120.553 25.2072 120 25.2072C119.345 25.2072 118.892 25.4592 118.54 25.9128C118.188 26.3664 118.037 27.072 118.037 27.9792V28.7352C118.037 29.6424 118.188 30.348 118.54 30.8016C118.842 31.2552 119.345 31.5072 119.949 31.5072C120.503 31.5072 120.956 31.356 121.258 31.104C121.56 30.852 121.711 30.3984 121.812 29.7936H123.221V29.844Z" fill="white"/>
<path d="M130.57 25.3584H127.952V32.616H126.493V25.3584H123.875V24.1992H130.519V25.3584H130.57Z" fill="white"/>
<path d="M136.61 28.836H133.137V31.4064H137.163V32.5656H131.677V24.1488H137.113V25.308H133.137V27.6264H136.61V28.836Z" fill="white"/>
<path d="M145.015 32.5656H143.556V25.308H139.831V32.5656H138.371V24.1488H144.965V32.5656H145.015Z" fill="white"/>
<path d="M148.237 29.4408V32.5656H146.777V24.1488H149.998C150.955 24.1488 151.659 24.4008 152.213 24.9048C152.767 25.4088 153.018 26.064 153.018 26.8704C153.018 27.6768 152.767 28.332 152.213 28.7856C151.659 29.2392 150.904 29.4912 149.948 29.4912H148.237V29.4408ZM148.237 28.2816H149.998C150.502 28.2816 150.904 28.1808 151.206 27.9288C151.458 27.6768 151.609 27.324 151.609 26.8704C151.609 26.4168 151.458 26.064 151.206 25.7616C150.904 25.5096 150.552 25.3584 150.049 25.3584H148.237V28.2816Z" fill="white"/>
<path d="M159.461 24.1488H160.921V32.5656H159.461V26.568L155.787 32.5656H154.327V24.1488H155.787V30.1464L159.461 24.1488Z" fill="white"/>
<path d="M167.816 24.1488H169.276V32.5656H167.816V26.568L164.142 32.5656H162.682V24.1488H164.142V30.1464L167.816 24.1488Z" fill="white"/>
<path d="M172.95 24.1488L175.366 30.6L177.782 24.1488H179.695V32.5656H178.235V29.7936L178.386 26.064L175.92 32.5656H174.863L172.397 26.064L172.548 29.7936V32.5656H171.088V24.1488H172.95Z" fill="white"/>
<path d="M187.799 29.844C187.698 30.7512 187.396 31.4568 186.792 31.9608C186.238 32.4648 185.433 32.7168 184.477 32.7168C183.822 32.7168 183.218 32.5656 182.715 32.2632C182.212 31.9608 181.809 31.5072 181.557 30.9024C181.255 30.2976 181.155 29.6424 181.104 28.8864V28.08C181.104 27.2736 181.255 26.568 181.507 25.9632C181.759 25.3584 182.212 24.9048 182.715 24.552C183.218 24.2496 183.873 24.048 184.527 24.048C185.433 24.048 186.188 24.3 186.792 24.804C187.346 25.308 187.698 26.0136 187.799 26.9208H186.339C186.289 26.316 186.087 25.8624 185.785 25.6104C185.483 25.3584 185.081 25.2072 184.527 25.2072C183.873 25.2072 183.42 25.4592 183.067 25.9128C182.715 26.3664 182.564 27.072 182.564 27.9792V28.7352C182.564 29.6424 182.715 30.348 183.067 30.8016C183.369 31.2552 183.873 31.5072 184.477 31.5072C185.03 31.5072 185.483 31.356 185.785 31.104C186.087 30.852 186.238 30.3984 186.339 29.7936H187.799V29.844Z" fill="white"/>
<path d="M195.198 25.3584H192.58V32.616H191.121V25.3584H188.503V24.1992H195.147V25.3584H195.198Z" fill="white"/>
<path d="M196.305 32.5656V24.1488H199.174C200.13 24.1488 200.835 24.3504 201.338 24.7032C201.842 25.1064 202.093 25.6608 202.093 26.4168C202.093 26.82 201.993 27.1728 201.791 27.4752C201.59 27.7776 201.288 28.0296 200.885 28.1808C201.338 28.2816 201.691 28.5336 201.942 28.8864C202.194 29.2392 202.295 29.6424 202.295 30.096C202.295 30.9024 202.043 31.5072 201.54 31.9104C201.036 32.3136 200.332 32.5656 199.375 32.5656H196.305ZM197.765 27.7272H199.174C199.627 27.7272 199.979 27.6264 200.231 27.4248C200.483 27.2232 200.634 26.9208 200.634 26.568C200.634 26.1648 200.533 25.8624 200.281 25.6608C200.03 25.4592 199.677 25.3584 199.174 25.3584H197.765V27.7272ZM197.765 28.7856V31.4064H199.375C199.828 31.4064 200.181 31.3056 200.432 31.0536C200.684 30.852 200.835 30.4992 200.835 30.096C200.835 29.2392 200.382 28.7856 199.476 28.7352H197.765V28.7856Z" fill="white"/>
<path d="M208.435 30.6504H205.164L204.459 32.616H202.949L206.12 24.1992H207.429L210.6 32.616H209.09L208.435 30.6504ZM205.617 29.4408H208.033L206.825 25.9632L205.617 29.4408Z" fill="white"/>
<path d="M110.537 78.3791H112.903V65.3759H115.621V78.3791H118.037V63.1583H110.537V78.3791Z" fill="white"/>
<path d="M166.457 44.9136H164.092V60.1344H166.457V44.9136Z" fill="white"/>
<path d="M126.09 81.4536H122.567V96.6744H124.932V90.9792H126.04C128.405 90.9792 129.613 89.6688 129.613 87.1992V85.2336C129.664 82.764 128.506 81.4536 126.09 81.4536ZM127.298 87.3504C127.298 88.4592 126.895 88.7616 126.14 88.7616H125.033V83.6208H126.14C126.895 83.6208 127.298 83.9736 127.298 85.032V87.3504Z" fill="white"/>
<path d="M170.887 74.6495V72.6839C170.887 70.2647 169.729 68.9039 167.313 68.9039H166.206V63.1583H163.84V78.3791H167.363C169.729 78.3791 170.887 77.0687 170.887 74.6495ZM166.206 71.0711H167.313C168.068 71.0711 168.471 71.4239 168.471 72.5327V74.8007C168.471 75.9095 168.068 76.2119 167.313 76.2119H166.206V71.0711Z" fill="white"/>
<path d="M174.913 57.9672H170.786V53.4816H174.058V51.3144H170.786V47.0808H174.913V44.9136H168.42V60.1344H174.913V57.9672Z" fill="white"/>
<path d="M152.364 81.252C149.998 81.252 148.79 82.6632 148.79 85.0824V92.9951C148.79 95.4143 149.998 96.8256 152.364 96.8256C154.73 96.8256 155.938 95.4143 155.938 92.9951V90.9791H153.673V93.1464C153.673 94.2552 153.169 94.608 152.414 94.608C151.659 94.608 151.156 94.2048 151.156 93.1464V84.9311C151.156 83.8223 151.609 83.4192 152.414 83.4192C153.169 83.4192 153.673 83.8223 153.673 84.9311V86.544H155.938V85.0824C155.887 82.6632 154.679 81.252 152.364 81.252Z" fill="white"/>
<path d="M143.606 81.252C141.24 81.252 140.032 82.6632 140.032 85.0824V92.9951C140.032 95.4143 141.24 96.8256 143.606 96.8256C145.972 96.8256 147.18 95.4143 147.18 92.9951V90.9791H144.915V93.1464C144.915 94.2552 144.462 94.608 143.656 94.608C142.901 94.608 142.398 94.2048 142.398 93.1464V84.9311C142.398 83.8223 142.901 83.4192 143.656 83.4192C144.411 83.4192 144.915 83.8223 144.915 84.9311V86.544H147.18V85.0824C147.18 82.6632 145.972 81.252 143.606 81.252Z" fill="white"/>
<path d="M144.059 65.3759V63.1583H137.566V78.3791H144.059V76.2119H139.932V71.7767H143.203V69.6095H139.932V65.3759H144.059Z" fill="white"/>
<path d="M160.619 87.7536L159.763 91.08V81.4536H157.599V96.6744H160.065L162.078 89.6688L163.035 85.9392V96.6744H165.199V81.4536H162.582L160.619 87.7536Z" fill="white"/>
<path d="M170.081 87.7536L169.226 91.08V81.4536H167.061V96.6744H169.528L171.541 89.6688L172.497 85.9392V96.6744H174.662V81.4536H172.044L170.081 87.7536Z" fill="white"/>
<path d="M174.662 63.1583H172.296V78.3791H174.662V63.1583Z" fill="white"/>
<path d="M134.747 81.252C132.382 81.252 131.123 82.6632 131.123 85.0824V92.9951C131.123 95.4143 132.382 96.8256 134.747 96.8256C137.113 96.8256 138.371 95.4143 138.371 92.9951V85.0824C138.371 82.6632 137.113 81.252 134.747 81.252ZM136.006 93.1968C136.006 94.3056 135.553 94.7088 134.747 94.7088C133.992 94.7088 133.489 94.3056 133.489 93.1968V84.9816C133.489 83.8728 133.942 83.4696 134.747 83.4696C135.502 83.4696 136.006 83.8728 136.006 84.9816V93.1968Z" fill="white"/>
<path d="M102.735 60.2855C105.101 60.2855 106.359 58.8743 106.359 56.4551V48.5423C106.359 46.1231 105.101 44.7119 102.735 44.7119C100.37 44.7119 99.1113 46.1231 99.1113 48.5423V56.4551C99.1113 58.9247 100.42 60.2855 102.735 60.2855ZM101.527 48.3911C101.527 47.2823 102.031 46.8791 102.786 46.8791C103.541 46.8791 104.044 47.2823 104.044 48.3911V56.6063C104.044 57.7151 103.541 58.1183 102.786 58.1183C102.031 58.1183 101.527 57.7151 101.527 56.6063V48.3911Z" fill="white"/>
<path d="M94.2291 53.1288L95.1854 49.3992V60.1344H97.3497V44.9136H94.7324L92.7694 51.2136L91.9137 54.54V44.9136H89.7494V60.1344H92.2157L94.2291 53.1288Z" fill="white"/>
<path d="M119.849 57.3624H122.768L123.171 60.1344H125.587L123.171 44.9136H119.647L117.231 60.1344H119.446L119.849 57.3624ZM121.308 47.5848L122.466 55.296H120.151L121.308 47.5848Z" fill="white"/>
<path d="M110.537 53.5824H113.255V60.1344H115.721V44.9136H113.255V51.4152H110.537V44.9136H108.171V60.1344H110.537V53.5824Z" fill="white"/>
<path d="M85.7731 62.1504H88.1387V58.0176H87.0817V44.9136H84.6657V57.9672H81.9477V44.9136H79.5317V60.1344H85.7731V62.1504Z" fill="white"/>
<path d="M72.2837 57.3624H75.203L75.6057 60.1344H78.0217L75.6057 44.9136H72.0824L69.6664 60.1344H71.8811L72.2837 57.3624ZM73.7434 47.5848L74.9011 55.296H72.5857L73.7434 47.5848Z" fill="white"/>
<path d="M119.949 63.1583V78.3791H122.315V72.6335H123.422C125.838 72.6335 126.996 71.3231 126.996 68.8535V66.8879C126.996 64.4687 125.838 63.1079 123.422 63.1079H119.949V63.1583ZM124.681 66.7871V69.0551C124.681 70.1639 124.278 70.4663 123.523 70.4663H122.416V65.3759H123.523C124.228 65.3759 124.681 65.6783 124.681 66.7871Z" fill="white"/>
<path d="M148.589 53.5824H151.307V60.1344H153.723V44.9136H151.307V51.4152H148.589V44.9136H146.223V60.1344H148.589V53.5824Z" fill="white"/>
<path d="M148.186 73.7423L148.891 72.3311L151.257 78.3791H153.673L150.351 69.9623L153.673 63.1583H151.307L148.186 69.8111V63.1583H145.77V78.3791H148.186V73.7423Z" fill="white"/>
<path d="M157.397 78.3791H159.813V65.3759H162.33V63.1583H154.931V65.3759H157.397V78.3791Z" fill="white"/>
<path d="M144.512 56.3544V54.3888C144.512 51.9696 143.354 50.6088 140.938 50.6088H139.831V44.9136H137.465V60.1344H140.989C143.354 60.1344 144.512 58.824 144.512 56.3544ZM139.831 52.776H140.938C141.693 52.776 142.096 53.1288 142.096 54.1872V56.4552C142.096 57.564 141.693 57.9168 140.938 57.9168H139.831V52.776Z" fill="white"/>
<path d="M130.721 56.304L130.972 47.0808H133.036V60.1344H135.452V44.9136H128.707L128.305 56.4048C128.254 57.816 127.902 57.9672 126.845 57.9672V60.1344H127.197C129.613 60.1344 130.62 59.076 130.721 56.304Z" fill="white"/>
<path d="M162.733 56.3544V54.3888C162.733 51.9696 161.575 50.6088 159.159 50.6088H158.052V44.9136H155.636V60.1344H159.159C161.575 60.1344 162.733 58.824 162.733 56.3544ZM158.052 52.776H159.159C159.914 52.776 160.317 53.1288 160.317 54.1872V56.4552C160.317 57.564 159.914 57.9168 159.159 57.9168H158.052V52.776Z" fill="white"/>
<path d="M132.13 63.0072C129.764 63.0072 128.506 64.4184 128.506 66.8376V74.7504C128.506 77.1696 129.764 78.5808 132.13 78.5808C134.496 78.5808 135.754 77.1696 135.754 74.7504V66.8376C135.754 64.4184 134.496 63.0072 132.13 63.0072ZM133.388 74.9016C133.388 76.0104 132.935 76.4136 132.13 76.4136C131.375 76.4136 130.872 76.0104 130.872 74.9016V66.6864C130.872 65.5776 131.325 65.1744 132.13 65.1744C132.885 65.1744 133.388 65.5776 133.388 66.6864V74.9016Z" fill="white"/>
<path d="M219.509 0.662354H60.7071C60.0527 0.662354 59.499 1.06555 59.2474 1.61995L0.206382 162.547C0.156049 162.598 0.156049 162.648 0.156049 162.749C0.156049 162.799 0.105713 162.85 0.105713 162.9C0.105713 163.001 0.105713 163.051 0.105713 163.152C0.105713 163.202 0.105713 163.253 0.105713 163.303C0.105713 163.404 0.156049 163.505 0.156049 163.555C0.307049 164.16 0.860715 164.614 1.46472 164.664C1.51505 164.664 1.56538 164.664 1.61571 164.664C1.76671 164.664 1.96805 164.614 2.16938 164.563L178.336 100.354C178.94 100.152 179.343 99.5471 179.343 98.892V71.6255L220.163 50.2056C220.666 49.9536 221.019 49.3992 221.019 48.7944V2.17435C221.069 1.36795 220.364 0.662354 219.509 0.662354ZM177.027 98.3375L3.22638 161.64L58.3414 43.3008H177.027V98.3375ZM219.911 48.8448C219.911 48.996 219.811 49.1472 219.66 49.1976L179.393 70.3152V42.4944C179.393 41.6376 178.688 40.932 177.833 40.932H57.838C57.234 40.932 56.6804 41.2848 56.4287 41.8392L6.09538 149.897L60.3547 2.12395C60.405 1.97275 60.556 1.87195 60.7071 1.87195H219.509C219.71 1.87195 219.911 2.02316 219.911 2.27516V48.8448Z" fill="white"/>
</svg>
